<svg width="43" height="52" viewBox="0 0 43 52" fill="none" xmlns="http://www.w3.org/2000/svg">
<path d="M36.2698 6.8474C27.9369 -1.48559 14.4759 -1.48559 6.24974 6.8474C-2.08325 15.1804 -2.08325 28.5345 6.24974 36.8675L21.2064 51.931L36.163 36.9744C44.496 28.6414 44.496 15.1804 36.2698 6.8474Z" fill="#0099A3"/>
<path d="M21.2066 36.9746C12.8736 36.9746 6.14307 30.2441 6.14307 21.9111C6.14307 13.5781 12.8736 6.84766 21.2066 6.84766C29.5395 6.84766 36.27 13.5781 36.27 21.9111C36.27 30.2441 29.5395 36.9746 21.2066 36.9746Z" fill="white"/>
<path d="M28.3037 26.0922C28.2967 26.2645 28.2439 26.4319 28.1508 26.577C28.0577 26.7221 27.9275 26.8398 27.7738 26.9179C27.6201 26.996 27.4483 27.0318 27.2762 27.0215C27.1041 27.0112 26.9378 26.9552 26.7945 26.8593C26.6767 26.7766 26.5791 26.6685 26.5088 26.5429L26.4359 26.4182L21.3638 17.7601L21.1413 17.3766C21.1007 17.2472 21.087 17.1108 21.1011 16.9758C21.1183 16.7839 21.1901 16.6008 21.308 16.4483C21.4258 16.2958 21.5848 16.1802 21.7662 16.1151C21.9477 16.05 22.1439 16.0381 22.3318 16.0809C22.5198 16.1236 22.6916 16.2192 22.8269 16.3564C22.85 16.3775 22.871 16.4024 22.8941 16.4274L23.0513 16.7227L28.1388 25.517C28.1397 25.5201 28.1397 25.5234 28.1388 25.5265L28.1982 25.6282C28.2713 25.7717 28.3075 25.9312 28.3037 26.0922Z" fill="url(#paint0_linear_3198_6278)"/>
<path d="M15.3306 26.8999C15.1942 26.9839 15.0379 27.03 14.8778 27.0333C14.7176 27.0367 14.5595 26.9972 14.4197 26.919C14.28 26.8408 14.1636 26.7267 14.0827 26.5885C14.0018 26.4503 13.9592 26.293 13.9595 26.1328C13.9631 25.9991 13.9972 25.8679 14.0592 25.7493L14.1167 25.6304L14.7936 23.8125L14.9854 23.4424C15.0642 23.345 15.1621 23.2647 15.2731 23.2065C15.4624 23.1088 15.6792 23.0781 15.8882 23.1196C16.0972 23.161 16.286 23.2721 16.4236 23.4347C16.5122 23.5424 16.5754 23.6686 16.6086 23.8041C16.6418 23.9395 16.6441 24.0807 16.6154 24.2171C16.6102 24.2475 16.6031 24.2776 16.5943 24.3072L16.4543 24.5891L15.6873 26.4799C15.6873 26.4799 15.6873 26.4799 15.6873 26.4895L15.6393 26.5873C15.6393 26.5873 15.6393 26.5873 15.6393 26.5969C15.5618 26.7208 15.456 26.8247 15.3306 26.8999Z" fill="url(#paint1_linear_3198_6278)"/>
<path d="M22.741 16.2355C22.634 16.1288 22.5042 16.0477 22.3614 15.9982C22.2186 15.9487 22.0665 15.9322 21.9164 15.9497C21.7254 15.9723 21.5447 16.0483 21.3951 16.1691C21.2455 16.2899 21.133 16.4505 21.0707 16.6324C21.0487 16.7039 21.0218 16.7737 20.9902 16.8414C20.9667 16.8892 20.937 16.9337 20.902 16.9738L20.3037 18.0074L18.5874 17.0179L19.3199 15.7484C19.5005 15.4966 19.7384 15.2914 20.014 15.1499C20.2897 15.0084 20.595 14.9346 20.9049 14.9346C21.2147 14.9346 21.5201 15.0084 21.7957 15.1499C22.0713 15.2914 22.3092 15.4966 22.4898 15.7484L22.6815 16.0801C22.7065 16.1358 22.7237 16.1856 22.741 16.2355Z" fill="url(#paint2_linear_3198_6278)"/>
<path d="M28.6509 26.8282C28.6509 26.857 28.6509 26.8857 28.6509 26.9145C28.6509 26.9433 28.6509 26.9394 28.6509 26.9548C28.6394 27.327 28.5295 27.6896 28.3325 28.0056L28.2942 28.0593L28.2482 28.1226C28.2482 28.1226 28.2482 28.1226 28.2386 28.1341C28.229 28.1456 28.206 28.1725 28.1906 28.1936C28.0815 28.3222 27.9558 28.4357 27.8167 28.5311L27.7783 28.5579C27.7131 28.5982 27.6479 28.6365 27.5866 28.6711L27.5195 28.7017L27.4523 28.7286L27.3795 28.7573C27.3304 28.7747 27.2805 28.7894 27.2299 28.8015H27.2011L27.1494 28.813C27.088 28.8264 27.0266 28.836 26.9576 28.8436H26.9039H26.8483H26.7351C26.4664 28.8446 26.2005 28.7891 25.9547 28.6806L25.5826 28.5061L17.0741 23.6047L16.2783 23.1483L16.2323 23.1214C16.0063 22.9999 15.7436 22.9656 15.4941 23.025C15.2445 23.0844 15.0254 23.2334 14.8784 23.4436L15.2619 22.7782C15.264 22.7712 15.2672 22.7647 15.2715 22.759L15.3559 22.6094L15.4537 22.4387C15.7279 22.0591 16.1303 21.7916 16.5865 21.6858C17.0428 21.58 17.5219 21.6431 17.9351 21.8635L18.0387 21.9248L18.0579 21.9344L26.0716 26.5176L26.5242 26.7764C26.5606 26.7994 26.7601 26.9318 26.9384 27.0257C26.9709 27.045 27.0049 27.0617 27.04 27.0756C27.0713 27.089 27.1033 27.1005 27.1359 27.1101L27.1685 27.1197C27.2578 27.1446 27.3501 27.1569 27.4427 27.1561C27.6833 27.158 27.9169 27.0753 28.1026 26.9225C28.2884 26.7697 28.4146 26.5564 28.4591 26.32C28.46 26.3041 28.46 26.2881 28.4591 26.2721C28.4591 26.2587 28.4591 26.2472 28.4591 26.2357C28.4619 26.1961 28.4619 26.1563 28.4591 26.1168C28.462 26.0753 28.462 26.0336 28.4591 25.9921V26.0094C28.5828 26.2648 28.6483 26.5444 28.6509 26.8282Z" fill="url(#paint3_linear_3198_6278)"/>
<path d="M20.9113 26.1185L16.7712 28.5022L16.4164 28.7073C16.1705 28.8155 15.9046 28.871 15.6359 28.8703H15.517H15.4614H15.4077C15.3432 28.8642 15.2792 28.8539 15.216 28.8397L15.1642 28.8281H15.1354C15.0856 28.8141 15.0357 28.7987 14.9859 28.7821L14.9111 28.7457C14.888 28.7341 14.8656 28.7213 14.8439 28.7073L14.7768 28.6767C14.7109 28.6424 14.6469 28.6047 14.5851 28.5635L14.5467 28.5367C14.4076 28.4413 14.2819 28.3278 14.1728 28.1992C14.1574 28.1781 14.1402 28.1589 14.1268 28.1416C14.1219 28.1382 14.1179 28.1336 14.1152 28.1282L14.0692 28.0649L14.0309 28.0112C13.8264 27.696 13.7099 27.3319 13.6934 26.9565C13.6934 26.9431 13.6934 26.9297 13.6934 26.9163C13.6934 26.9028 13.6934 26.8587 13.6934 26.83C13.6926 26.5477 13.7542 26.2688 13.8736 26.0131L13.8851 25.992C13.8822 26.0335 13.8822 26.0751 13.8851 26.1166C13.8823 26.1556 13.8823 26.1946 13.8851 26.2336C13.8851 26.2528 13.8851 26.2528 13.8851 26.27C13.8872 26.2868 13.8904 26.3035 13.8947 26.3199C13.9389 26.5547 14.0637 26.7667 14.2475 26.9193C14.4313 27.0719 14.6626 27.1556 14.9015 27.156C14.9941 27.1568 15.0865 27.1445 15.1757 27.1195L15.2064 27.1099C15.2397 27.1007 15.2724 27.0891 15.3042 27.0754C15.3441 27.0604 15.3826 27.0418 15.4192 27.0198C15.5976 26.9259 15.8028 26.7935 15.8334 26.7705L16.2841 26.5116L18.9688 24.9775L20.9113 26.1185Z" fill="url(#paint4_linear_3198_6278)"/>
<path d="M20.1557 18.2863L18.4385 17.2949L17.4471 19.0121L19.1642 20.0035L20.1557 18.2863Z" fill="url(#paint5_linear_3198_6278)"/>
<path d="M20.6149 19.8838L19.8809 19.46L19.4571 20.194L20.1911 20.6178L20.6149 19.8838Z" fill="url(#paint6_linear_3198_6278)"/>
<path d="M19.4133 20.4766L18.3188 19.8477L17.6899 20.9421L18.7843 21.5711L19.4133 20.4766Z" fill="url(#paint7_linear_3198_6278)"/>
<defs>
<linearGradient id="paint0_linear_3198_6278" x1="22.5968" y1="17.6527" x2="26.5069" y2="24.9072" gradientUnits="userSpaceOnUse">
<stop stop-color="#10566D"/>
<stop offset="1" stop-color="#0099A3"/>
</linearGradient>
<linearGradient id="paint1_linear_3198_6278" x1="16.1452" y1="23.525" x2="14.8666" y2="25.9161" gradientUnits="userSpaceOnUse">
<stop stop-color="#10566D"/>
<stop offset="1" stop-color="#0099A3"/>
</linearGradient>
<linearGradient id="paint2_linear_3198_6278" x1="19.4887" y1="17.7907" x2="21.7975" y2="15.0887" gradientUnits="userSpaceOnUse">
<stop stop-color="#10566D"/>
<stop offset="1" stop-color="#0099A3"/>
</linearGradient>
<linearGradient id="paint3_linear_3198_6278" x1="27.8685" y1="28.113" x2="16.3128" y2="21.7848" gradientUnits="userSpaceOnUse">
<stop stop-color="#10566D"/>
<stop offset="1" stop-color="#0099A3"/>
</linearGradient>
<linearGradient id="paint4_linear_3198_6278" x1="14.5812" y1="27.6488" x2="19.3216" y2="25.1616" gradientUnits="userSpaceOnUse">
<stop stop-color="#10566D"/>
<stop offset="1" stop-color="#0099A3"/>
</linearGradient>
<linearGradient id="paint5_linear_3198_6278" x1="16.3217" y1="20.1559" x2="19.5548" y2="18.1919" gradientUnits="userSpaceOnUse">
<stop stop-color="#10566D"/>
<stop offset="1" stop-color="#0099A3"/>
</linearGradient>
<linearGradient id="paint6_linear_3198_6278" x1="17.2727" y1="21.7184" x2="20.5068" y2="19.7527" gradientUnits="userSpaceOnUse">
<stop stop-color="#10566D"/>
<stop offset="1" stop-color="#0099A3"/>
</linearGradient>
<linearGradient id="paint7_linear_3198_6278" x1="17.1709" y1="21.5516" x2="20.4122" y2="19.5726" gradientUnits="userSpaceOnUse">
<stop stop-color="#10566D"/>
<stop offset="1" stop-color="#0099A3"/>
</linearGradient>
</defs>
</svg>
